<svg width="155" height="18" viewBox="0 0 155 18" fill="none" xmlns="http://www.w3.org/2000/svg">
<path d="M12.8335 3.40038L10.655 10.9472H10.2823L8.1037 3.40038C7.73098 2.12332 6.56136 1.24414 5.22467 1.24414H0V17.6726H5.23109V7.96312H5.60384L8.59855 17.6726H12.3387L15.327 7.96312H15.6997V17.6726H20.9309V1.24414H15.7062C14.3759 1.24414 13.2063 2.12332 12.8335 3.40038ZM41.7973 17.6726H47.0606V12.8147H52.3561C55.1258 12.8147 57.4844 11.2488 58.3968 9.04767H41.7973V17.6726ZM32.4727 2.97683L28.7904 10.9536H28.4176V1.24414H23.1865V17.6726H27.6272C28.7968 17.6726 29.857 16.9924 30.3455 15.9399L34.0278 7.96955H34.4006V17.6726H39.6317V1.24414H35.191C34.0213 1.24414 32.9611 1.92438 32.4727 2.97683Z" fill="#929292"/>
<path fill-rule="evenodd" clip-rule="evenodd" d="M52.8761 1.24414C54.3863 1.24414 55.7551 1.8217 56.7898 2.77148C57.9465 3.82393 58.6727 5.33844 58.6727 7.0262C58.6727 7.37273 58.6342 7.71285 58.5763 8.04656H48.8596C45.5692 8.04656 42.7802 5.89032 41.8419 2.91266C41.8291 2.88057 41.8226 2.84207 41.8098 2.80356C41.7841 2.71372 41.7648 2.61746 41.7391 2.52762C41.6427 2.11048 41.5784 1.68694 41.5527 1.24414H52.8761Z" fill="#929292"/>
<path fill-rule="evenodd" clip-rule="evenodd" d="M136.236 1.87695H143.849V15.6164H136.236V1.87695Z" fill="#929292"/>
<path fill-rule="evenodd" clip-rule="evenodd" d="M136.732 8.74574C136.732 5.95924 138.029 3.47623 140.043 1.87606C138.581 0.717316 136.705 0 134.691 0C129.89 0 126 3.91765 126 8.74574C126 13.5738 129.89 17.4915 134.691 17.4915C136.732 17.4915 138.581 16.7742 140.043 15.6154C138.029 14.0153 136.732 11.5322 136.732 8.74574Z" fill="#929292"/>
<path fill-rule="evenodd" clip-rule="evenodd" d="M154.113 8.74574C154.113 13.5738 150.223 17.4915 145.423 17.4915C143.381 17.4915 141.533 16.7742 140.071 15.6154C142.085 14.0153 143.381 11.5322 143.381 8.74574C143.381 5.95924 142.085 3.47623 140.043 1.87606C141.533 0.717316 143.409 0 145.423 0C150.223 0 154.113 3.91765 154.113 8.74574Z" fill="#929292"/>
<path d="M92.2485 1.4835L89.2304 15.9649H85.5933L88.65 1.4835H92.2485ZM107.571 10.8186L109.467 5.39308L110.55 10.8585H107.571V10.8186ZM111.634 15.9649H115L112.059 1.4835H108.964C108.267 1.4835 107.687 1.88244 107.416 2.56063L101.96 15.9649H105.791L106.526 13.8106H111.169L111.634 15.9649ZM102.154 11.2175C102.193 7.38776 97.0077 7.18829 97.0464 5.47286C97.0464 4.95425 97.5108 4.39574 98.5942 4.27606C99.1359 4.19627 100.567 4.15637 102.193 4.91435L102.812 1.88244C101.922 1.5234 100.8 1.24414 99.4067 1.24414C95.8083 1.24414 93.2932 3.19893 93.2545 6.03138C93.2158 8.10584 95.0731 9.30265 96.4273 9.98084C97.8203 10.6989 98.3233 11.1777 98.3233 11.7761C98.3233 12.7734 97.1625 13.1723 96.1565 13.2122C94.3379 13.2521 93.2545 12.6936 92.4033 12.2947L91.7455 15.4862C92.5967 15.8851 94.1445 16.2441 95.7696 16.2441C99.6389 16.2042 102.115 14.2495 102.154 11.2175ZM87.1023 1.4835L81.1823 15.9649H77.3517L74.411 4.39574C74.2562 3.67765 74.1015 3.43829 73.5985 3.11914C72.7085 2.64042 71.2769 2.16169 70 1.88244L70.0774 1.4835H76.2683C77.0808 1.4835 77.7386 2.04201 77.9321 2.95957L79.4798 11.3372L83.2717 1.4835H87.1023Z" fill="#929292"/>
</svg>
